<svg xmlns="http://www.w3.org/2000/svg" width="100" height="100" viewBox="0 0 100 100" fill="none">
  <circle cx="49.7906" cy="49" r="49" fill="white" />
  <path
        d="M21.791 43.8297C21.6031 44.0149 21.4964 44.2671 21.495 44.5308V76.5352C21.495 77.0766 21.9342 77.5159 22.4756 77.5159H66.862C67.1293 77.5232 67.3879 77.4205 67.5781 77.2326C67.7679 77.0442 67.8728 76.7865 67.8687 76.5193V57.6522C67.8687 57.1107 67.4294 56.6715 66.8876 56.6715C66.3462 56.6715 65.9069 57.1107 65.9069 57.6522V75.5548H23.4565V45.512H37.8888V57.0704C37.8888 57.4112 38.0649 57.7268 38.355 57.9056C38.6446 58.0839 39.0063 58.0999 39.3101 57.9466L44.6818 55.2445L50.054 57.9457L50.0545 57.9462C50.3583 58.099 50.7195 58.083 51.0091 57.9046C51.2988 57.7259 51.4753 57.4102 51.4753 57.07V44.5304C51.4748 44.2326 51.3389 43.9512 51.1063 43.7655C50.8737 43.5799 50.569 43.5096 50.2784 43.5753C50.2059 43.5575 50.1316 43.5479 50.0568 43.5479C50.0253 43.5479 44.6882 43.5438 44.6627 43.5479H40.1166L42.0126 35.7123H48.8667C49.4085 35.7123 49.8478 35.2731 49.8478 34.7312C49.8478 34.1898 49.4085 33.7506 48.8667 33.7506H32.7518C32.5 33.7506 32.2573 33.8473 32.0749 34.0211C32.0667 34.0325 21.7968 43.8189 21.7913 43.8294L21.791 43.8297ZM45.1653 53.2928L45.1516 53.2864C44.8679 53.1368 44.5299 53.1313 44.2412 53.2709L39.8497 55.4804V45.5119C39.878 45.5119 44.6773 45.5151 44.701 45.5119H49.5131V55.4804L45.1653 53.2928ZM33.1442 35.7148H39.9956L38.0995 43.5504H24.926L33.1442 35.7148Z"
        fill="#049ED8" />
  <path
        d="M26.2573 74.3653H35.5529C36.0943 74.3653 36.5336 73.9261 36.5336 73.3842C36.5336 72.8428 36.0943 72.4036 35.5529 72.4036H26.2573C25.7154 72.4036 25.2762 72.8428 25.2762 73.3842C25.2762 73.9261 25.7154 74.3653 26.2573 74.3653Z"
        fill="#049ED8" />
  <path
        d="M26.2573 71.2149H31.5866C32.128 71.2149 32.5673 70.7757 32.5673 70.2338C32.5673 69.6924 32.128 69.2532 31.5866 69.2532H26.2573C25.9968 69.2532 25.7473 69.3563 25.5635 69.5405C25.3797 69.7243 25.2762 69.9738 25.2762 70.2338C25.2762 70.7757 25.7154 71.2149 26.2573 71.2149Z"
        fill="#049ED8" />
  <path
        d="M79.4643 21.8132C79.4529 21.4209 79.2107 21.0729 78.8467 20.926C78.4832 20.7792 78.0668 20.8617 77.7867 21.1363C76.3924 22.5548 74.4849 23.3503 72.4958 23.3426C69.9028 23.3513 67.494 22.0025 66.1466 19.7867C65.909 19.4095 65.4492 19.2375 65.0227 19.3662C64.7961 19.4373 64.6022 19.5865 64.4745 19.7867C63.1271 22.0026 60.7179 23.3512 58.1249 23.3426C56.1362 23.3499 54.2287 22.5544 52.8348 21.1363C52.5524 20.8608 52.1337 20.7792 51.7688 20.9292C51.4039 21.0788 51.1626 21.431 51.1553 21.8255V37.6415C51.1572 41.1924 52.1889 44.6661 54.1252 47.6423C56.0619 50.6184 58.82 52.9693 62.0657 54.4092C62.3476 54.5137 65.0898 55.8287 65.3106 55.7557C65.4465 55.7502 65.581 55.7215 65.7078 55.6708L68.5554 54.4087C71.8007 52.9688 74.5598 50.6184 76.496 47.6422C78.4327 44.6661 79.4644 41.1923 79.4658 37.6414C79.4686 37.6327 79.4652 21.8202 79.4643 21.8132Z"
        fill="#049ED8" />
  <path
        d="M65.3097 29.4359C63.1016 29.4387 60.9848 30.3167 59.4235 31.878C57.8622 33.4393 56.9841 35.5561 56.9814 37.7637C57.4394 48.8146 73.1828 48.81 73.6382 37.7637C73.6359 35.5561 72.7574 33.4393 71.1961 31.878C69.6348 30.3167 67.518 29.4381 65.3099 29.4359H65.3097ZM65.3097 44.131C63.6216 44.1291 62.0033 43.4577 60.8101 42.2641C59.6164 41.0704 58.945 39.4521 58.9432 37.7641C59.2931 29.3186 71.3275 29.3204 71.6766 37.7641H71.6771C71.6748 39.4521 71.0034 41.0704 69.8097 42.2641C68.6165 43.4578 66.9978 44.1292 65.3101 44.131H65.3097Z"
        fill="white" />
  <path
        d="M68.8419 34.2491L63.7097 39.1838L61.8063 37.1974H61.8058C61.4314 36.8065 60.8101 36.7933 60.4192 37.1678C60.0279 37.5427 60.0147 38.1639 60.3896 38.5548L62.9726 41.251C63.1527 41.4389 63.4004 41.5474 63.6608 41.5529C63.9213 41.5579 64.1731 41.4594 64.3605 41.2792L70.2012 35.663V35.6625C70.5788 35.2849 70.5848 34.6746 70.2149 34.2896C69.8445 33.9042 69.2342 33.8864 68.8419 34.2491Z"
        fill="white" />
</svg>